<svg xmlns="http://www.w3.org/2000/svg" width="200" height="200" viewBox="0 0 200 200">
  <!-- 背景圆形 -->
  <circle cx="100" cy="100" r="80" fill="#f0f0f0" />
  
  <!-- 文档图标 -->
  <g transform="translate(100, 100) scale(1.2)">
    <path d="M-40,-50 L10,-50 L40,-20 L40,50 L-40,50 Z" fill="white" stroke="#673ab7" stroke-width="4" />
    <path d="M10,-50 L10,-20 L40,-20" fill="none" stroke="#673ab7" stroke-width="4" />
    
    <!-- 文本线条 -->
    <line x1="-30" y1="-30" x2="30" y2="-30" stroke="#673ab7" stroke-width="4" />
    <line x1="-30" y1="-10" x2="30" y2="-10" stroke="#673ab7" stroke-width="4" />
    <line x1="-30" y1="10" x2="30" y2="10" stroke="#673ab7" stroke-width="4" />
    <line x1="-30" y1="30" x2="10" y2="30" stroke="#673ab7" stroke-width="4" />
  </g>
  
  <!-- 魔法笔效果 -->
  <g transform="translate(140, 60) rotate(45)">
    <path d="M-5,-20 L5,-20 L5,0 L-5,0 Z" fill="#673ab7" />
    <path d="M-3,0 L3,0 L0,10 Z" fill="#673ab7" />
    
    <!-- 魔法效果 -->
    <circle cx="0" cy="-25" r="2" fill="#673ab7" />
    <circle cx="-8" cy="-22" r="2" fill="#673ab7" />
    <circle cx="8" cy="-22" r="2" fill="#673ab7" />
  </g>
</svg>
